<svg xmlns="http://www.w3.org/2000/svg" viewBox="0 0 32 32" fill="none">
  <circle cx="16" cy="16" r="15" stroke="#4fc3f7" stroke-width="2" fill="#0f3460"/>
  <g transform="translate(9, 7)">
    <circle cx="0" cy="0" r="3" stroke="#4fc3f7" stroke-width="1.2" fill="none"/>
    <path d="M-5 7c0-4 2.5-6 5-6s5 2 5 6" stroke="#4fc3f7" stroke-width="1.2" stroke-linecap="round" fill="none"/>
  </g>
  <g transform="translate(16, 5)">
    <circle cx="0" cy="0" r="3.5" stroke="#fff" stroke-width="1.2" fill="none"/>
    <path d="M-5.5 7c0-4.5 3-6.5 5.5-6.5s5.5 2 5.5 6.5" stroke="#fff" stroke-width="1.2" stroke-linecap="round" fill="none"/>
  </g>
  <g transform="translate(23, 7)">
    <circle cx="0" cy="0" r="3" stroke="#4fc3f7" stroke-width="1.2" fill="none"/>
    <path d="M-5 7c0-4 2.5-6 5-6s5 2 5 6" stroke="#4fc3f7" stroke-width="1.2" stroke-linecap="round" fill="none"/>
  </g>
  <path d="M5 24 Q16 27 27 24" stroke="#4fc3f7" stroke-width="1" stroke-linecap="round" fill="none" opacity="0.5"/>
  <g transform="translate(16, 3)" opacity="0.85">
    <path d="M0-2.5L0.5 0L2.5 0L1 1.5L1.5 3.5L0 2L-1.5 3.5L-1 1.5L-2.5 0L-0.5 0Z" fill="#ffd54f"/>
  </g>
</svg>
