<svg xmlns="http://www.w3.org/2000/svg" viewBox="0 0 180 48" fill="none">
  <!-- Logo 图形 -->
  <g transform="translate(4, 4)">
    <circle cx="20" cy="20" r="18" stroke="oklch(0.60 0.18 225 / 0.2)" stroke-width="2" fill="none"/>
    <g transform="translate(12, 10)" opacity="0.7">
      <circle cx="0" cy="-2" r="3.5" stroke="oklch(0.60 0.18 225)" stroke-width="1.5" fill="none"/>
      <path d="M-5 7c0-4 2.5-6 5-6s5 2 5 6" stroke="oklch(0.60 0.18 225)" stroke-width="1.5" stroke-linecap="round" fill="none"/>
    </g>
    <g transform="translate(20, 8)" opacity="1">
      <circle cx="0" cy="-2" r="4.5" stroke="oklch(0.60 0.18 225)" stroke-width="1.5" fill="none"/>
      <path d="M-6 8c0-5 3-7 6-7s6 2 6 7" stroke="oklch(0.60 0.18 225)" stroke-width="1.5" stroke-linecap="round" fill="none"/>
    </g>
    <g transform="translate(28, 10)" opacity="0.7">
      <circle cx="0" cy="-2" r="3.5" stroke="oklch(0.60 0.18 225)" stroke-width="1.5" fill="none"/>
      <path d="M-5 7c0-4 2.5-6 5-6s5 2 5 6" stroke="oklch(0.60 0.18 225)" stroke-width="1.5" stroke-linecap="round" fill="none"/>
    </g>
    <path d="M6 30 Q20 34 34 30" stroke="oklch(0.60 0.18 225 / 0.3)" stroke-width="1.2" stroke-linecap="round" fill="none"/>
  </g>

  <!-- 文字（针对白色背景优化） -->
  <text x="52" y="28" font-family="system-ui, -apple-system, 'Segoe UI', Roboto, sans-serif" font-size="20" font-weight="700" fill="oklch(0.18 0.01 250)" letter-spacing="3">趣聚平台</text>
  <text x="52" y="42" font-family="system-ui, -apple-system, 'Segoe UI', Roboto, sans-serif" font-size="10" font-weight="400" fill="oklch(0.55 0.02 250 / 0.5)" letter-spacing="1">QUJU PLATFORM</text>
</svg>
